<?xml version="1.0" standalone="no"?>
<!DOCTYPE svg PUBLIC "-//W3C//DTD SVG 1.0//EN" "http://www.w3.org/TR/2001/REC-SVG-20010904/DTD/svg10.dtd">
<svg xmlns="http://www.w3.org/2000/svg" xmlns:xlink="http://www.w3.org/1999/xlink" id="body_1" width="24" height="24">

<g transform="matrix(0.083333336 0 0 0.083333336 0 0)">
	<g transform="matrix(12 0 0 12 0 0)">
        <path d="M15.61 12C 15.61 13.99 13.99 15.61 12 15.61C 10.01 15.61 8.39 13.99 8.39 12C 8.39 10.01 10.01 8.39 12 8.39C 13.99 8.39 15.61 10.01 15.61 12M12 0C 5.383 0 0 5.383 0 12C 0 18.617 5.383 24 12 24C 14.424 24 16.761 23.278 18.76 21.913L18.76 21.913L18.794 21.889L17.177 20.01L17.15 20.027C 15.614607 21.016216 13.826466 21.541548 12 21.54C 6.74 21.54 2.46 17.26 2.46 12.000001C 2.46 6.7400007 6.7400002 2.460001 12 2.460001C 17.26 2.460001 21.54 6.740001 21.54 12.000001C 21.538599 12.689416 21.463165 13.376695 21.315 14.050001C 21.014 15.289001 20.146 15.668001 19.495 15.618001C 18.841002 15.565001 18.075 15.0980015 18.069 13.957001L18.069 13.957001L18.069 12C 18.065693 8.649392 15.350607 5.9338584 12 5.93C 8.649002 5.933308 5.933308 8.649002 5.93 12C 5.933308 15.350998 8.649003 18.066692 12 18.07C 13.615737 18.073921 15.165228 17.42818 16.3 16.278C 17.021801 17.41145 18.276272 18.093475 19.619999 18.083C 20.494 18.083 21.359999 17.791 22.057 17.262001C 22.776 16.715 23.313 15.926001 23.609999 14.977001C 23.657 14.823001 23.744999 14.4730015 23.744999 14.470001L23.744999 14.470001L23.747 14.457002C 23.921999 13.697001 24 12.937002 24 12.000002C 24 5.383002 18.617 1.9073486E-06 12 1.9073486E-06" stroke="none" fill="#000000" fill-rule="nonzero" />
	</g>
</g>
</svg>